<svg xmlns="http://www.w3.org/2000/svg" width="1024" height="1024" viewBox="0 0 1024 1024">
<g>
<path d="M 0.00 0.00 L 1024.00 0.00 L 1024.00 1024.00 L 0.00 1024.00 ZM 161.50 1022.92 C165.35,1023.37 322.62,1023.78 511.00,1023.84 C799.14,1023.92 855.33,1023.72 865.00,1022.54 C895.96,1018.76 932.04,1002.73 956.84,981.73 C960.91,978.29 961.93,978.89 965.12,986.57 C966.35,989.55 967.65,992.00 968.00,992.00 C968.35,992.00 969.64,989.56 970.88,986.58 C973.62,979.96 980.69,973.05 987.28,970.53 C989.88,969.54 992.00,968.36 992.00,967.90 C992.00,967.45 990.25,966.56 988.11,965.91 C985.97,965.27 983.02,963.79 981.56,962.62 L 978.91 960.50 L 985.76 951.50 C1004.28,927.18 1015.97,901.25 1021.21,872.89 L 1023.50 860.50 L 1023.50 517.50 C1023.50,233.40 1023.27,173.21 1022.15,167.00 C1019.98,154.99 1014.14,132.70 1011.37,125.83 C1003.78,107.05 991.83,86.31 980.64,72.50 C974.18,64.53 961.10,51.32 953.50,45.08 C939.21,33.36 918.95,20.98 906.00,16.04 C902.97,14.89 899.60,13.51 898.50,12.98 C891.93,9.80 868.95,4.10 852.50,1.58 C842.31,0.02 817.04,-0.08 510.00,0.23 C253.68,0.49 176.69,0.85 170.50,1.80 C132.34,7.68 100.79,21.42 71.44,44.93 C51.11,61.20 27.67,91.76 17.86,114.75 C16.75,117.36 15.24,120.85 14.50,122.50 C12.96,125.97 8.58,139.65 7.14,145.50 C6.59,147.70 5.61,151.52 4.95,154.00 C0.41,171.08 0.59,156.92 0.24,514.50 C-0.05,817.39 0.07,851.63 1.51,862.00 C6.27,896.43 19.48,927.43 40.49,953.50 C48.20,963.06 63.85,978.95 70.50,983.95 C77.52,989.24 90.31,997.62 96.50,1001.00 C99.80,1002.79 102.95,1004.59 103.50,1004.99 C104.81,1005.94 122.82,1013.19 130.50,1015.85 C138.55,1018.64 152.92,1021.92 161.50,1022.92 Z" fill="rgb(1,1,1)"/>
<path d="M 379.50 849.55 C358.33,852.31 328.44,850.07 313.12,844.57 C310.72,843.71 307.34,843.00 305.61,843.00 C303.89,843.00 298.88,841.21 294.49,839.03 C290.10,836.84 285.82,835.04 284.98,835.03 C284.15,835.01 281.83,833.89 279.83,832.53 C277.83,831.17 273.79,828.99 270.85,827.68 C266.06,825.54 252.46,816.80 244.52,810.76 C240.72,807.87 215.48,782.40 211.41,777.34 C206.75,771.55 197.35,756.83 196.51,754.00 C196.10,752.62 194.24,748.97 192.38,745.87 C190.52,742.77 189.00,739.77 189.00,739.20 C189.00,738.63 188.38,736.89 187.61,735.33 C182.66,725.23 181.00,720.93 181.00,718.19 C181.00,716.47 180.05,712.69 178.89,709.79 C176.38,703.50 173.05,677.71 173.02,664.33 C172.98,647.09 180.12,612.33 186.02,601.00 C187.02,599.08 188.81,594.91 190.00,591.73 C191.19,588.56 193.18,584.74 194.44,583.23 C195.69,581.73 197.63,578.42 198.74,575.88 C199.86,573.34 202.40,569.46 204.39,567.26 C206.37,565.06 208.00,562.90 208.00,562.47 C208.00,560.77 224.13,544.05 278.02,489.91 C308.90,458.89 334.63,433.05 335.19,432.50 C337.22,430.49 477.17,290.48 477.82,289.79 C479.48,288.06 547.87,220.68 551.04,217.65 C552.99,215.79 555.51,213.97 556.64,213.61 C557.77,213.25 559.21,211.85 559.83,210.48 C560.45,209.12 561.46,208.00 562.07,208.00 C562.68,208.00 565.73,206.22 568.84,204.05 C575.42,199.45 583.23,194.99 591.00,191.40 C594.03,190.01 599.65,187.38 603.50,185.57 C610.88,182.10 629.75,177.20 646.50,174.41 C654.53,173.07 660.01,172.87 674.32,173.39 C691.60,174.02 695.38,174.52 707.00,177.67 C710.03,178.49 714.75,179.64 717.50,180.22 C729.70,182.81 743.37,188.47 758.82,197.34 C768.16,202.70 776.71,208.92 778.49,211.62 C779.34,212.93 780.64,214.00 781.36,214.00 C783.29,214.00 806.81,236.73 808.66,240.38 C809.53,242.09 811.88,245.10 813.88,247.06 C820.58,253.60 839.00,287.05 839.00,292.68 C839.00,293.46 839.71,295.46 840.57,297.13 C841.43,298.80 842.58,302.89 843.11,306.22 C843.65,309.54 844.71,313.46 845.46,314.93 C849.11,321.99 852.17,362.42 850.06,375.69 C845.70,403.03 836.68,432.78 830.30,440.83 C828.70,442.85 826.78,446.08 826.03,448.00 C825.29,449.92 823.92,452.40 823.00,453.50 C822.08,454.60 820.05,457.75 818.49,460.50 C814.78,467.02 806.37,477.33 796.99,486.86 C792.86,491.06 787.56,496.52 785.22,499.00 C782.87,501.48 779.73,504.65 778.23,506.06 C776.73,507.47 773.25,511.17 770.50,514.28 C767.75,517.39 765.12,519.95 764.66,519.97 C764.20,519.99 759.25,524.77 753.66,530.60 C748.07,536.43 740.88,543.74 737.67,546.85 C734.46,549.96 730.19,554.29 728.17,556.47 C726.15,558.66 722.54,562.32 720.14,564.62 C713.98,570.52 713.54,570.96 698.01,586.50 C690.32,594.20 683.11,601.40 681.98,602.50 C679.82,604.61 635.13,650.13 626.34,659.19 C623.50,662.11 620.13,665.52 618.84,666.76 C616.32,669.19 605.60,679.83 602.76,682.73 C599.00,686.57 588.37,697.11 586.12,699.24 C584.81,700.49 581.35,703.97 578.42,707.00 C575.50,710.03 571.85,713.68 570.31,715.11 C568.76,716.55 565.12,720.15 562.21,723.11 C559.30,726.08 556.03,729.40 554.93,730.50 C553.84,731.60 550.28,735.20 547.03,738.50 C543.77,741.80 540.16,745.40 539.02,746.50 C536.83,748.61 526.01,759.40 522.87,762.61 C515.64,770.00 507.91,777.74 506.49,779.00 C505.56,779.83 501.94,783.42 498.44,787.00 C494.95,790.58 491.37,794.17 490.49,795.00 C489.61,795.83 486.89,798.62 484.45,801.20 C482.00,803.79 477.87,807.35 475.25,809.12 C472.64,810.89 468.64,813.95 466.36,815.92 C461.16,820.42 456.49,823.53 452.00,825.49 C450.08,826.33 447.38,827.68 446.00,828.48 C436.07,834.30 418.49,841.82 412.00,843.02 C409.52,843.48 403.67,844.81 399.00,845.98 C394.33,847.15 385.55,848.76 379.50,849.55 ZM 630.24 613.92 C631.71,614.47 633.67,614.29 635.85,613.40 C639.25,612.00 688.00,563.90 688.00,561.95 C688.00,561.39 688.80,560.61 689.77,560.22 C690.74,559.82 694.67,556.12 698.50,552.00 C702.33,547.88 705.85,544.34 706.33,544.13 C707.94,543.46 720.00,530.97 720.00,529.98 C720.00,529.44 720.43,529.00 720.96,529.00 C722.17,529.00 734.65,516.51 736.04,513.92 C736.61,512.86 737.62,511.99 738.29,511.97 C738.95,511.95 742.20,508.97 745.50,505.35 C748.80,501.72 752.62,497.70 754.00,496.40 C755.38,495.10 756.95,493.53 757.50,492.89 C758.05,492.26 760.36,489.89 762.63,487.62 C764.90,485.35 767.28,482.49 767.91,481.25 C768.55,480.01 769.66,479.00 770.37,479.00 C771.09,479.00 773.24,477.31 775.15,475.25 C777.07,473.19 779.50,470.77 780.57,469.87 C781.63,468.98 784.53,465.69 787.00,462.57 C789.47,459.45 792.74,455.58 794.25,453.96 C795.76,452.34 797.00,450.56 797.00,450.00 C797.00,449.44 798.56,446.76 800.47,444.04 C804.90,437.74 814.65,417.51 815.87,412.10 C816.38,409.82 817.50,406.89 818.35,405.58 C819.74,403.46 821.15,396.89 824.06,379.00 C825.28,371.47 825.31,345.05 824.10,336.50 C821.53,318.25 819.89,311.40 815.43,300.29 C808.32,282.58 801.68,270.15 794.99,261.99 C792.95,259.51 790.97,256.49 790.58,255.27 C790.20,254.05 788.88,252.25 787.67,251.28 C786.45,250.30 782.54,246.35 778.99,242.50 C775.44,238.65 770.50,234.21 768.01,232.63 C765.53,231.04 761.92,228.34 760.00,226.63 C754.82,222.00 730.82,209.53 720.50,206.10 C709.46,202.43 694.30,199.22 683.03,198.16 C671.97,197.11 644.15,198.56 636.50,200.58 C633.20,201.45 627.56,202.73 623.98,203.42 C616.91,204.78 585.63,219.32 583.04,222.44 C582.24,223.41 579.09,225.79 576.04,227.73 C571.10,230.89 491.35,309.40 437.17,364.46 C427.45,374.33 417.72,384.10 415.55,386.16 C412.32,389.22 411.62,390.56 411.70,393.46 C411.79,396.45 412.84,398.03 418.40,403.51 C422.03,407.09 425.00,410.46 425.00,410.99 C425.00,411.53 426.80,413.11 429.00,414.50 C431.20,415.89 433.00,417.50 433.00,418.08 C433.00,418.66 437.05,423.17 442.00,428.11 C447.05,433.15 451.00,437.92 451.00,438.99 C451.00,440.04 449.46,442.07 447.57,443.51 C440.76,448.71 426.00,471.10 426.00,476.23 C426.00,477.29 424.92,480.94 423.59,484.33 C420.53,492.19 419.99,496.41 419.89,513.00 C419.80,527.74 419.86,528.14 424.14,542.00 C429.49,559.32 438.61,573.31 451.95,584.64 C460.60,591.99 476.46,601.34 483.24,603.08 C485.59,603.68 490.20,604.84 493.50,605.67 C496.80,606.49 505.80,607.39 513.50,607.67 C531.12,608.32 541.90,606.29 556.26,599.60 C565.06,595.50 583.18,583.10 586.87,578.65 C587.63,577.74 589.05,577.00 590.04,577.00 C591.02,577.00 596.93,581.98 603.17,588.07 C609.40,594.17 614.82,599.45 615.22,599.82 C615.61,600.20 618.65,603.33 621.96,606.78 C625.27,610.23 629.00,613.44 630.24,613.92 ZM 536.97 348.51 C530.60,354.89 521.53,353.64 517.72,345.86 C514.86,340.01 516.57,334.75 523.45,328.25 C526.50,325.36 529.00,322.55 529.00,322.00 C529.00,321.45 529.47,321.00 530.05,321.00 C530.62,321.00 544.35,307.73 560.56,291.50 C576.77,275.27 590.36,261.99 590.76,261.97 C591.17,261.95 594.04,259.59 597.13,256.72 C600.23,253.85 604.96,250.44 607.63,249.14 C610.31,247.84 615.03,245.49 618.12,243.92 C626.52,239.65 637.78,236.26 651.71,233.81 C664.07,231.63 664.29,231.62 677.84,233.36 C695.49,235.63 709.45,239.29 713.14,242.63 C714.04,243.44 717.10,244.99 719.95,246.07 C729.62,249.75 740.28,257.89 744.36,264.73 C745.91,267.32 743.04,273.90 739.23,276.49 C734.19,279.91 730.49,279.68 724.21,275.55 C709.93,266.14 696.69,260.65 684.00,258.85 C665.65,256.25 644.05,258.61 631.42,264.58 C628.61,265.91 625.66,267.00 624.87,267.00 C622.95,267.00 608.38,277.56 607.64,279.48 C607.32,280.32 606.51,281.00 605.84,281.00 C604.85,281.00 596.30,288.97 586.53,299.00 C582.65,302.99 572.87,312.72 570.97,314.50 C569.79,315.60 566.15,319.20 562.88,322.50 C559.61,325.80 555.71,329.65 554.22,331.06 C552.72,332.47 549.03,336.17 546.00,339.29 C542.97,342.41 538.91,346.56 536.97,348.51 Z" fill="rgb(24,116,199)"/>
<path d="M 394.85 850.15 C386.68,851.81 379.98,852.32 363.00,852.55 C338.81,852.89 332.80,852.31 315.00,847.90 C287.16,841.01 261.03,827.84 239.50,809.84 C202.24,778.68 179.48,738.49 172.39,691.37 C170.21,676.87 171.00,647.08 173.95,632.56 C179.65,604.45 192.09,577.29 208.52,557.10 C216.76,546.98 544.40,219.22 553.50,212.00 C572.91,196.60 591.12,186.67 612.94,179.58 C633.94,172.76 642.63,171.51 669.00,171.50 C692.53,171.50 700.41,172.42 718.00,177.21 C772.19,191.99 818.71,234.14 839.92,287.67 C848.70,309.83 852.01,326.63 852.72,352.50 C853.29,373.52 852.03,385.80 847.47,403.34 C840.36,430.68 826.49,457.63 808.87,478.31 C799.69,489.08 486.86,803.17 478.52,809.98 C454.28,829.79 424.30,844.19 394.85,850.15 ZM 379.50 849.55 C385.55,848.76 394.33,847.15 399.00,845.98 C403.67,844.81 409.52,843.48 412.00,843.02 C418.49,841.82 436.07,834.30 446.00,828.48 C447.38,827.68 450.08,826.33 452.00,825.49 C456.49,823.53 461.16,820.42 466.36,815.92 C468.64,813.95 472.64,810.89 475.25,809.12 C477.87,807.35 482.00,803.79 484.45,801.20 C486.89,798.62 489.61,795.83 490.49,795.00 C491.37,794.17 494.95,790.58 498.44,787.00 C501.94,783.42 505.56,779.83 506.49,779.00 C507.91,777.74 515.64,770.00 522.87,762.61 C526.01,759.40 536.83,748.61 539.02,746.50 C540.16,745.40 543.77,741.80 547.03,738.50 C550.28,735.20 553.84,731.60 554.93,730.50 C556.03,729.40 559.30,726.08 562.21,723.11 C565.12,720.15 568.76,716.55 570.31,715.11 C571.85,713.68 575.50,710.03 578.42,707.00 C581.35,703.97 584.81,700.49 586.12,699.24 C588.37,697.11 599.00,686.57 602.76,682.73 C605.60,679.83 616.32,669.19 618.84,666.76 C620.13,665.52 623.50,662.11 626.34,659.19 C635.13,650.13 679.82,604.61 681.98,602.50 C683.11,601.40 690.32,594.20 698.01,586.50 C713.54,570.96 713.98,570.52 720.14,564.62 C722.54,562.32 726.15,558.66 728.17,556.47 C730.19,554.29 734.46,549.96 737.67,546.85 C740.88,543.74 748.07,536.43 753.66,530.60 C759.25,524.77 764.20,519.99 764.66,519.97 C765.12,519.95 767.75,517.39 770.50,514.28 C773.25,511.17 776.73,507.47 778.23,506.06 C779.73,504.65 782.87,501.48 785.22,499.00 C787.56,496.52 792.86,491.06 796.99,486.86 C806.37,477.33 814.78,467.02 818.49,460.50 C820.05,457.75 822.08,454.60 823.00,453.50 C823.92,452.40 825.29,449.92 826.03,448.00 C826.78,446.08 828.70,442.85 830.30,440.83 C836.68,432.78 845.70,403.03 850.06,375.69 C852.17,362.42 849.11,321.99 845.46,314.93 C844.71,313.46 843.65,309.54 843.11,306.22 C842.58,302.89 841.43,298.80 840.57,297.13 C839.71,295.46 839.00,293.46 839.00,292.68 C839.00,287.05 820.58,253.60 813.88,247.06 C811.88,245.10 809.53,242.09 808.66,240.38 C806.81,236.73 783.29,214.00 781.36,214.00 C780.64,214.00 779.34,212.93 778.49,211.62 C776.71,208.92 768.16,202.70 758.82,197.34 C743.37,188.47 729.70,182.81 717.50,180.22 C714.75,179.64 710.03,178.49 707.00,177.67 C695.38,174.52 691.60,174.02 674.32,173.39 C660.01,172.87 654.53,173.07 646.50,174.41 C629.75,177.20 610.88,182.10 603.50,185.57 C599.65,187.38 594.03,190.01 591.00,191.40 C583.23,194.99 575.42,199.45 568.84,204.05 C565.73,206.22 562.68,208.00 562.07,208.00 C561.46,208.00 560.45,209.12 559.83,210.48 C559.21,211.85 557.77,213.25 556.64,213.61 C555.51,213.97 552.99,215.79 551.04,217.65 C547.87,220.68 479.48,288.06 477.82,289.79 C477.17,290.48 337.22,430.49 335.19,432.50 C334.63,433.05 308.90,458.89 278.02,489.91 C224.13,544.05 208.00,560.77 208.00,562.47 C208.00,562.90 206.37,565.06 204.39,567.26 C202.40,569.46 199.86,573.34 198.74,575.88 C197.63,578.42 195.69,581.73 194.44,583.23 C193.18,584.74 191.19,588.56 190.00,591.73 C188.81,594.91 187.02,599.08 186.02,601.00 C180.12,612.33 172.98,647.09 173.02,664.33 C173.05,677.71 176.38,703.50 178.89,709.79 C180.05,712.69 181.00,716.47 181.00,718.19 C181.00,720.93 182.66,725.23 187.61,735.33 C188.38,736.89 189.00,738.63 189.00,739.20 C189.00,739.77 190.52,742.77 192.38,745.87 C194.24,748.97 196.10,752.62 196.51,754.00 C197.35,756.83 206.75,771.55 211.41,777.34 C215.48,782.40 240.72,807.87 244.52,810.76 C252.46,816.80 266.06,825.54 270.85,827.68 C273.79,828.99 277.83,831.17 279.83,832.53 C281.83,833.89 284.15,835.01 284.98,835.03 C285.82,835.04 290.10,836.84 294.49,839.03 C298.88,841.21 303.89,843.00 305.61,843.00 C307.34,843.00 310.72,843.71 313.12,844.57 C328.44,850.07 358.33,852.31 379.50,849.55 ZM 630.24 613.92 C629.00,613.44 625.27,610.23 621.96,606.78 C618.65,603.33 615.61,600.20 615.22,599.82 C614.82,599.45 609.40,594.17 603.17,588.07 C596.93,581.98 591.02,577.00 590.04,577.00 C589.05,577.00 587.63,577.74 586.87,578.65 C583.18,583.10 565.06,595.50 556.26,599.60 C541.90,606.29 531.12,608.32 513.50,607.67 C505.80,607.39 496.80,606.49 493.50,605.67 C490.20,604.84 485.59,603.68 483.24,603.08 C476.46,601.34 460.60,591.99 451.95,584.64 C438.61,573.31 429.49,559.32 424.14,542.00 C419.86,528.14 419.80,527.74 419.89,513.00 C419.99,496.41 420.53,492.19 423.59,484.33 C424.92,480.94 426.00,477.29 426.00,476.23 C426.00,471.10 440.76,448.71 447.57,443.51 C449.46,442.07 451.00,440.04 451.00,438.99 C451.00,437.92 447.05,433.15 442.00,428.11 C437.05,423.17 433.00,418.66 433.00,418.08 C433.00,417.50 431.20,415.89 429.00,414.50 C426.80,413.11 425.00,411.53 425.00,410.99 C425.00,410.46 422.03,407.09 418.40,403.51 C412.84,398.03 411.79,396.45 411.70,393.46 C411.62,390.56 412.32,389.22 415.55,386.16 C417.72,384.10 427.45,374.33 437.17,364.46 C491.35,309.40 571.10,230.89 576.04,227.73 C579.09,225.79 582.24,223.41 583.04,222.44 C585.63,219.32 616.91,204.78 623.98,203.42 C627.56,202.73 633.20,201.45 636.50,200.58 C644.15,198.56 671.97,197.11 683.03,198.16 C694.30,199.22 709.46,202.43 720.50,206.10 C730.82,209.53 754.82,222.00 760.00,226.63 C761.92,228.34 765.53,231.04 768.01,232.63 C770.50,234.21 775.44,238.65 778.99,242.50 C782.54,246.35 786.45,250.30 787.67,251.28 C788.88,252.25 790.20,254.05 790.58,255.27 C790.97,256.49 792.95,259.51 794.99,261.99 C801.68,270.15 808.32,282.58 815.43,300.29 C819.89,311.40 821.53,318.25 824.10,336.50 C825.31,345.05 825.28,371.47 824.06,379.00 C821.15,396.89 819.74,403.46 818.35,405.58 C817.50,406.89 816.38,409.82 815.87,412.10 C814.65,417.51 804.90,437.74 800.47,444.04 C798.56,446.76 797.00,449.44 797.00,450.00 C797.00,450.56 795.76,452.34 794.25,453.96 C792.74,455.58 789.47,459.45 787.00,462.57 C784.53,465.69 781.63,468.98 780.57,469.87 C779.50,470.77 777.07,473.19 775.15,475.25 C773.24,477.31 771.09,479.00 770.37,479.00 C769.66,479.00 768.55,480.01 767.91,481.25 C767.28,482.49 764.90,485.35 762.63,487.62 C760.36,489.89 758.05,492.26 757.50,492.89 C756.95,493.53 755.38,495.10 754.00,496.40 C752.62,497.70 748.80,501.72 745.50,505.35 C742.20,508.97 738.95,511.95 738.29,511.97 C737.62,511.99 736.61,512.86 736.04,513.92 C734.65,516.51 722.17,529.00 720.96,529.00 C720.43,529.00 720.00,529.44 720.00,529.98 C720.00,530.97 707.94,543.46 706.33,544.13 C705.85,544.34 702.33,547.88 698.50,552.00 C694.67,556.12 690.74,559.82 689.77,560.22 C688.80,560.61 688.00,561.39 688.00,561.95 C688.00,563.90 639.25,612.00 635.85,613.40 C633.67,614.29 631.71,614.47 630.24,613.92 ZM 611.50 593.00 L 632.49 614.01 L 703.84 542.75 C775.85,470.85 789.55,456.40 797.53,443.95 C813.41,419.17 822.88,387.35 822.96,358.50 C823.16,283.51 773.31,219.82 701.70,203.57 C694.77,202.00 675.83,200.00 667.86,200.00 C641.91,200.00 612.66,208.05 591.45,221.03 C576.02,230.48 567.87,238.07 496.08,309.87 C414.34,391.63 412.20,393.83 413.55,394.85 C414.07,395.24 424.04,405.23 435.70,417.04 L 456.91 438.51 L 448.20 447.65 C438.70,457.62 434.61,463.74 429.48,475.68 C421.47,494.28 419.90,518.50 425.47,537.43 C432.20,560.30 447.19,580.25 466.35,591.83 C504.73,615.03 551.89,609.26 582.97,577.57 C585.97,574.51 588.90,572.00 589.47,572.00 C590.05,572.00 599.96,581.45 611.50,593.00 ZM 533.30 354.70 C522.47,359.36 510.89,348.72 513.98,336.96 C515.04,332.93 518.82,328.89 552.71,295.51 C573.36,275.17 592.79,256.56 595.88,254.16 C608.80,244.13 625.45,236.56 642.86,232.81 C654.58,230.29 676.65,229.83 688.00,231.89 C714.49,236.68 743.99,252.84 747.06,264.23 C749.57,273.55 742.89,282.00 733.02,282.00 C728.52,282.00 725.19,280.55 718.13,275.53 C711.67,270.93 702.97,266.73 693.00,263.39 C685.00,260.71 683.50,260.54 667.50,260.52 C650.92,260.50 650.25,260.58 640.36,263.82 C634.78,265.65 626.68,269.20 622.36,271.72 C614.11,276.54 608.02,282.21 559.31,330.50 C546.55,343.15 534.85,354.04 533.30,354.70 ZM 536.97 348.51 C538.91,346.56 542.97,342.41 546.00,339.29 C549.03,336.17 552.72,332.47 554.22,331.06 C555.71,329.65 559.61,325.80 562.88,322.50 C566.15,319.20 569.79,315.60 570.97,314.50 C572.87,312.72 582.65,302.99 586.53,299.00 C596.30,288.97 604.85,281.00 605.84,281.00 C606.51,281.00 607.32,280.32 607.64,279.48 C608.38,277.56 622.95,267.00 624.87,267.00 C625.66,267.00 628.61,265.91 631.42,264.58 C644.05,258.61 665.65,256.25 684.00,258.85 C696.69,260.65 709.93,266.14 724.21,275.55 C730.49,279.68 734.19,279.91 739.23,276.49 C743.04,273.90 745.91,267.32 744.36,264.73 C740.28,257.89 729.62,249.75 719.95,246.07 C717.10,244.99 714.04,243.44 713.14,242.63 C709.45,239.29 695.49,235.63 677.84,233.36 C664.29,231.62 664.07,231.63 651.71,233.81 C637.78,236.26 626.52,239.65 618.12,243.92 C615.03,245.49 610.31,247.84 607.63,249.14 C604.96,250.44 600.23,253.85 597.13,256.72 C594.04,259.59 591.17,261.95 590.76,261.97 C590.36,261.99 576.77,275.27 560.56,291.50 C544.35,307.73 530.62,321.00 530.05,321.00 C529.47,321.00 529.00,321.45 529.00,322.00 C529.00,322.55 526.50,325.36 523.45,328.25 C516.57,334.75 514.86,340.01 517.72,345.86 C521.53,353.64 530.60,354.89 536.97,348.51 ZM 509.80 555.57 C506.43,557.35 499.46,557.36 495.50,555.57 C493.85,554.83 484.55,546.18 474.83,536.36 C459.82,521.19 457.06,517.92 456.45,514.66 C454.98,506.71 460.09,498.82 467.63,497.41 C474.29,496.16 477.72,498.16 489.98,510.47 C496.30,516.81 501.93,522.00 502.49,522.00 C503.05,522.00 514.99,510.50 529.01,496.43 C543.03,482.37 555.72,470.22 557.20,469.43 C558.69,468.65 562.18,468.00 564.97,468.00 C569.30,468.00 570.54,468.47 573.52,471.25 C577.41,474.87 579.24,481.29 577.85,486.47 C577.31,488.49 566.80,499.71 544.78,521.78 C527.03,539.57 511.28,554.78 509.80,555.57 ZM 918.32 1006.25 C929.44,1000.89 940.19,994.45 950.00,987.14 C958.87,980.54 975.31,964.32 984.00,953.82 L 978.91 960.50 L 981.56 962.62 C983.02,963.79 985.97,965.27 988.11,965.91 C990.25,966.56 992.00,967.45 992.00,967.90 C992.00,968.36 989.88,969.54 987.28,970.53 C980.69,973.05 973.62,979.96 970.88,986.58 C969.64,989.56 968.35,992.00 968.00,992.00 C967.65,992.00 966.35,989.55 965.12,986.57 C961.93,978.89 960.91,978.29 956.84,981.73 C945.76,991.11 932.44,999.50 918.32,1006.25 ZM 1003.26 924.31 C1011.91,907.96 1017.89,890.84 1021.21,872.92 C1017.87,890.96 1011.92,908.02 1003.26,924.31 Z" fill="rgb(52,122,165)"/>
<path d="M 161.50 1022.92 C152.92,1021.92 138.55,1018.64 130.50,1015.85 C122.82,1013.19 104.81,1005.94 103.50,1004.99 C102.95,1004.59 99.80,1002.79 96.50,1001.00 C90.31,997.62 77.52,989.24 70.50,983.95 C63.85,978.95 48.20,963.06 40.49,953.50 C19.48,927.43 6.27,896.43 1.51,862.00 C0.07,851.63 -0.05,817.39 0.24,514.50 C0.59,156.92 0.41,171.08 4.95,154.00 C5.61,151.52 6.59,147.70 7.14,145.50 C8.58,139.65 12.96,125.97 14.50,122.50 C15.24,120.85 16.75,117.36 17.86,114.75 C27.67,91.76 51.11,61.20 71.44,44.93 C100.79,21.42 132.34,7.68 170.50,1.80 C176.69,0.85 253.68,0.49 510.00,0.23 C817.04,-0.08 842.31,0.02 852.50,1.58 C868.95,4.10 891.93,9.80 898.50,12.98 C899.60,13.51 902.97,14.89 906.00,16.04 C918.95,20.98 939.21,33.36 953.50,45.08 C961.10,51.32 974.18,64.53 980.64,72.50 C991.83,86.31 1003.78,107.05 1011.37,125.83 C1014.14,132.70 1019.98,154.99 1022.15,167.00 C1023.27,173.21 1023.50,233.40 1023.50,517.50 L 1023.50 860.50 L 1021.21 872.89 C1016.08,900.65 1004.56,926.50 986.62,950.50 C979.12,960.54 959.88,979.79 950.00,987.14 C924.69,1005.98 893.19,1019.10 865.00,1022.54 C855.33,1023.72 799.14,1023.92 511.00,1023.84 C322.62,1023.78 165.35,1023.37 161.50,1022.92 ZM 394.85 850.15 C424.30,844.19 454.28,829.79 478.52,809.98 C486.86,803.17 799.69,489.08 808.87,478.31 C826.49,457.63 840.36,430.68 847.47,403.34 C852.03,385.80 853.29,373.52 852.72,352.50 C852.01,326.63 848.70,309.83 839.92,287.67 C818.71,234.14 772.19,191.99 718.00,177.21 C700.41,172.42 692.53,171.50 669.00,171.50 C642.63,171.51 633.94,172.76 612.94,179.58 C591.12,186.67 572.91,196.60 553.50,212.00 C544.40,219.22 216.76,546.98 208.52,557.10 C192.09,577.29 179.65,604.45 173.95,632.56 C171.00,647.08 170.21,676.87 172.39,691.37 C179.48,738.49 202.24,778.68 239.50,809.84 C261.03,827.84 287.16,841.01 315.00,847.90 C332.80,852.31 338.81,852.89 363.00,852.55 C379.98,852.32 386.68,851.81 394.85,850.15 ZM 611.50 593.00 C599.96,581.45 590.05,572.00 589.47,572.00 C588.90,572.00 585.97,574.51 582.97,577.57 C551.89,609.26 504.73,615.03 466.35,591.83 C447.19,580.25 432.20,560.30 425.47,537.43 C419.90,518.50 421.47,494.28 429.48,475.68 C434.61,463.74 438.70,457.62 448.20,447.65 L 456.91 438.51 L 435.70 417.04 C424.04,405.23 414.07,395.24 413.55,394.85 C412.20,393.83 414.34,391.63 496.08,309.87 C567.87,238.07 576.02,230.48 591.45,221.03 C612.66,208.05 641.91,200.00 667.86,200.00 C675.83,200.00 694.77,202.00 701.70,203.57 C773.31,219.82 823.16,283.51 822.96,358.50 C822.88,387.35 813.41,419.17 797.53,443.95 C789.55,456.40 775.85,470.85 703.84,542.75 L 632.49 614.01 L 611.50 593.00 ZM 509.80 555.57 C511.28,554.78 527.03,539.57 544.78,521.78 C566.80,499.71 577.31,488.49 577.85,486.47 C579.24,481.29 577.41,474.87 573.52,471.25 C570.54,468.47 569.30,468.00 564.97,468.00 C562.18,468.00 558.69,468.65 557.20,469.43 C555.72,470.22 543.03,482.37 529.01,496.43 C514.99,510.50 503.05,522.00 502.49,522.00 C501.93,522.00 496.30,516.81 489.98,510.47 C477.72,498.16 474.29,496.16 467.63,497.41 C460.09,498.82 454.98,506.71 456.45,514.66 C457.06,517.92 459.82,521.19 474.83,536.36 C484.55,546.18 493.85,554.83 495.50,555.57 C499.46,557.36 506.43,557.35 509.80,555.57 ZM 533.30 354.70 C534.85,354.04 546.55,343.15 559.31,330.50 C608.02,282.21 614.11,276.54 622.36,271.72 C626.68,269.20 634.78,265.65 640.36,263.82 C650.25,260.58 650.92,260.50 667.50,260.52 C683.50,260.54 685.00,260.71 693.00,263.39 C702.97,266.73 711.67,270.93 718.13,275.53 C725.19,280.55 728.52,282.00 733.02,282.00 C742.89,282.00 749.57,273.55 747.06,264.23 C743.99,252.84 714.49,236.68 688.00,231.89 C676.65,229.83 654.58,230.29 642.86,232.81 C625.45,236.56 608.80,244.13 595.88,254.16 C592.79,256.56 573.36,275.17 552.71,295.51 C518.82,328.89 515.04,332.93 513.98,336.96 C510.89,348.72 522.47,359.36 533.30,354.70 Z" fill="rgb(253,254,254)"/>
</g>
</svg>