<svg xmlns="http://www.w3.org/2000/svg" width="566" height="440" viewBox="0 0 566 440">
<g>
<path d="M 264.99 221.20 C255.01,222.47 241.51,223.24 240.88,222.58 C240.54,222.22 234.92,221.02 228.38,219.92 C217.99,218.16 215.12,217.20 205.50,212.31 C190.61,204.74 183.86,200.05 174.99,191.09 C161.62,177.57 152.33,160.53 150.40,145.96 C149.77,141.22 149.83,141.08 152.63,140.48 C170.04,136.76 197.37,124.51 218.00,111.18 C227.37,105.13 234.40,102.85 249.51,100.95 C257.32,99.96 259.13,100.03 262.39,101.39 C264.47,102.26 265.99,103.52 265.77,104.19 C265.55,104.85 260.00,107.24 253.43,109.50 C246.87,111.75 240.60,114.10 239.50,114.71 C236.80,116.20 232.52,120.86 233.21,121.55 C233.52,121.85 236.63,121.23 240.13,120.17 C270.94,110.83 271.73,110.70 278.43,114.00 C284.03,116.74 300.50,132.39 299.50,134.01 C297.94,136.53 286.98,134.61 279.15,130.44 L 271.97 126.62 L 265.24 128.38 C261.53,129.34 255.38,130.92 251.56,131.90 C245.85,133.35 244.04,134.34 241.31,137.50 C238.40,140.87 237.04,144.00 238.49,144.00 C238.76,144.00 242.74,142.44 247.34,140.54 C260.53,135.08 262.78,134.81 275.99,137.11 C292.81,140.03 299.15,140.81 312.25,141.54 C323.64,142.18 324.00,142.27 324.00,144.49 C324.00,148.60 320.95,150.82 312.18,153.05 C304.84,154.92 301.96,155.11 287.68,154.66 C278.78,154.37 269.86,153.84 267.86,153.47 C264.71,152.90 263.03,153.47 255.36,157.76 C246.88,162.49 224.67,175.67 216.74,180.67 L 212.97 183.05 L 214.61 186.27 C221.41,199.66 233.57,207.20 251.50,209.12 C262.58,210.32 266.07,211.38 268.94,214.44 C272.58,218.31 271.37,220.39 264.99,221.20 ZM 149.70 178.82 C151.63,182.84 153.04,186.28 152.85,186.47 C151.70,187.59 144.36,182.05 137.60,174.98 C120.06,156.61 117.64,138.53 130.18,119.33 C143.19,99.40 169.06,81.81 201.85,70.60 C249.77,54.22 308.99,56.81 347.69,76.99 C356.64,81.66 366.39,88.34 364.97,88.83 C364.43,89.02 358.26,86.88 351.25,84.08 C327.61,74.65 308.21,71.00 281.67,71.00 C247.38,71.00 216.04,78.07 190.07,91.67 C174.43,99.86 169.42,103.45 158.98,113.94 C144.26,128.72 139.58,140.54 142.03,156.71 C143.22,164.57 144.12,167.14 149.70,178.82 Z" fill="rgb(9,159,180)"/>
<path d="M 324.46 389.06 C322.28,392.59 311.00,383.81 311.00,378.59 C311.00,374.88 315.22,370.82 318.46,371.41 C322.17,372.08 322.83,372.71 323.92,376.67 C324.69,379.47 324.57,380.94 323.35,383.29 C321.93,386.04 321.93,386.38 323.42,387.21 C324.31,387.71 324.78,388.55 324.46,389.06 ZM 212.93 383.37 C208.59,388.88 200.07,384.55 201.42,377.52 C202.66,371.13 209.30,369.33 213.23,374.31 C215.54,377.24 215.44,380.17 212.93,383.37 ZM 164.44 383.78 C162.46,386.61 157.72,386.72 155.00,384.00 C152.22,381.22 152.42,376.48 155.45,373.45 C158.45,370.46 159.95,370.39 163.37,373.07 C166.43,375.49 166.91,380.25 164.44,383.78 ZM 479.32 384.85 C476.91,386.11 472.71,386.38 471.67,385.33 C471.30,384.97 471.00,381.82 471.00,378.33 L 471.00 372.00 L 475.00 372.00 C479.79,372.00 483.01,374.72 482.98,378.75 C482.97,382.06 482.20,383.33 479.32,384.85 ZM 131.00 383.11 C131.00,385.06 129.65,386.31 128.64,385.31 C128.29,384.95 128.00,381.82 128.00,378.33 C128.00,372.69 128.22,372.00 129.97,372.00 C131.17,372.00 132.65,373.28 133.72,375.25 L 135.50 378.50 L 135.81 375.25 C136.01,373.24 136.67,372.00 137.56,372.00 C138.68,372.00 139.00,373.58 139.00,379.00 C139.00,386.95 137.37,388.30 134.15,383.00 C132.28,379.93 131.00,379.97 131.00,383.11 ZM 437.17 384.35 C434.56,386.71 430.42,386.43 428.56,383.78 C427.68,382.52 427.00,379.48 427.00,376.78 C427.00,372.71 427.29,372.00 428.95,372.00 C430.59,372.00 430.94,372.82 431.20,377.24 C431.43,381.29 431.90,382.56 433.25,382.81 C434.74,383.10 435.00,382.35 435.00,377.68 C435.00,373.91 435.44,372.05 436.40,371.68 C438.54,370.85 439.00,371.88 439.00,377.51 C439.00,381.26 438.49,383.15 437.17,384.35 ZM 238.42 385.39 C230.40,388.47 224.41,379.50 230.45,373.45 C232.95,370.96 234.59,370.52 237.42,371.61 C239.88,372.55 239.44,375.27 236.95,374.48 C235.83,374.13 234.25,374.38 233.45,375.04 C231.51,376.65 231.57,381.90 233.54,382.65 C235.64,383.46 236.54,382.35 235.15,380.68 C233.73,378.97 234.64,378.00 237.67,378.00 C239.65,378.00 240.00,378.51 240.00,381.39 C240.00,383.56 239.43,385.00 238.42,385.39 ZM 498.36 384.50 C497.73,386.14 496.41,386.47 495.61,385.18 C494.80,383.87 498.06,373.61 499.70,372.32 C500.52,371.67 501.77,371.36 502.48,371.63 C503.64,372.08 507.00,381.88 507.00,384.82 C507.00,386.53 504.32,386.27 503.64,384.50 C503.32,383.67 502.13,383.00 501.00,383.00 C499.87,383.00 498.68,383.67 498.36,384.50 ZM 273.64 384.50 C273.03,386.09 271.40,386.50 270.70,385.25 C270.46,384.84 271.17,381.69 272.28,378.25 C273.96,373.00 274.64,372.00 276.55,372.00 C278.47,372.00 279.13,372.98 280.75,378.25 C282.74,384.69 282.11,388.18 279.57,384.75 C277.99,382.61 274.42,382.46 273.64,384.50 ZM 348.17 384.35 C345.46,386.80 341.34,386.44 339.46,383.59 C337.40,380.43 337.79,371.50 340.00,371.50 C341.12,371.50 341.58,372.94 341.80,377.25 C342.06,382.18 342.38,383.00 344.05,383.00 C345.60,383.00 346.00,382.30 346.00,379.57 C346.00,375.22 347.68,370.69 349.00,371.50 C349.55,371.84 350.00,374.50 350.00,377.40 C350.00,381.26 349.50,383.14 348.17,384.35 ZM 373.00 384.50 C373.00,385.61 371.83,386.00 368.50,386.00 L 364.00 386.00 L 364.00 372.00 L 368.58 372.00 C371.81,372.00 373.04,372.37 372.75,373.25 C372.52,373.94 371.81,374.56 371.17,374.62 C370.52,374.69 369.55,374.81 369.00,374.88 C367.07,375.12 368.02,376.86 370.25,377.18 C371.49,377.36 372.50,377.95 372.50,378.50 C372.50,379.05 371.49,379.64 370.25,379.82 C367.13,380.26 367.35,383.00 370.50,383.00 C372.06,383.00 373.00,383.57 373.00,384.50 ZM 89.28 384.50 C89.40,385.05 87.36,385.64 84.75,385.80 L 80.00 386.11 L 80.00 372.00 L 84.50 372.00 C89.36,372.00 90.57,373.57 86.50,374.59 C83.39,375.37 83.26,376.76 86.25,377.18 C87.49,377.36 88.50,377.95 88.50,378.50 C88.50,379.05 87.49,379.64 86.25,379.82 C83.18,380.26 83.40,382.79 86.53,383.18 C87.92,383.36 89.16,383.95 89.28,384.50 ZM 112.42 385.39 C105.07,388.21 99.78,379.13 105.45,373.45 C108.20,370.71 111.17,370.29 112.93,372.41 C114.28,374.04 112.94,375.30 110.75,374.46 C108.69,373.67 106.80,376.42 107.18,379.69 C107.45,382.05 108.02,382.55 110.75,382.81 C114.22,383.15 115.02,384.39 112.42,385.39 ZM 336.59 71.90 C351.16,77.72 364.73,85.65 377.25,95.68 C385.50,102.29 386.09,104.29 378.25,99.09 C367.40,91.88 356.63,86.19 345.48,81.86 C347.38,82.56 349.30,83.30 351.25,84.08 C358.26,86.88 364.43,89.02 364.97,88.83 C366.39,88.34 356.64,81.66 347.69,76.99 C344.15,75.15 340.45,73.45 336.59,71.90 ZM 412.73 384.32 C412.05,386.40 406.56,386.28 404.63,384.15 C402.00,381.24 402.79,375.23 406.13,372.74 C409.04,370.58 413.00,371.09 413.00,373.63 C413.00,374.64 412.39,374.94 411.14,374.54 C408.66,373.76 406.78,376.20 407.18,379.69 C407.43,381.93 408.07,382.57 410.31,382.82 C411.92,383.01 412.95,383.65 412.73,384.32 ZM 63.00 379.99 C63.00,382.68 62.62,385.12 62.16,385.40 C60.51,386.42 59.00,383.53 59.00,379.35 C59.00,376.35 58.49,374.81 57.26,374.12 C56.30,373.59 55.79,372.87 56.13,372.53 C57.34,371.33 63.52,370.94 65.00,371.98 C66.31,372.90 66.28,373.17 64.75,374.07 C63.46,374.83 63.00,376.39 63.00,379.99 ZM 188.75 384.75 C189.04,385.63 187.81,386.00 184.58,386.00 L 180.00 386.00 L 180.00 379.00 C180.00,373.44 180.31,372.00 181.50,372.00 C182.60,372.00 183.00,373.15 183.02,376.25 C183.03,381.17 183.75,382.63 186.42,383.13 C187.47,383.34 188.52,384.06 188.75,384.75 ZM 257.57 377.86 C257.52,382.88 257.09,385.46 256.25,385.74 C255.56,385.98 254.72,385.43 254.37,384.52 C253.45,382.13 254.56,369.04 255.78,367.82 C257.10,366.50 259.28,367.75 258.33,369.27 C257.95,369.89 257.60,373.76 257.57,377.86 ZM 456.39 384.42 C455.75,386.10 454.76,386.43 453.67,385.33 C452.80,384.47 452.80,372.54 453.66,371.68 C454.02,371.31 454.92,371.52 455.66,372.13 C457.03,373.27 457.52,381.48 456.39,384.42 ZM 205.61 381.42 C205.94,382.29 207.02,383.00 208.00,383.00 C211.00,383.00 212.17,377.22 209.61,375.09 C208.53,374.19 207.85,374.30 206.61,375.54 C204.90,377.25 204.62,378.86 205.61,381.42 ZM 315.37 380.35 C316.24,383.81 319.72,383.98 320.57,380.59 C321.26,377.84 319.42,373.69 317.75,374.25 C315.76,374.91 314.69,377.64 315.37,380.35 ZM 157.42 381.65 C158.57,384.65 161.48,382.67 161.82,378.66 C162.10,375.17 161.93,374.87 159.82,375.17 C157.43,375.51 156.27,378.65 157.42,381.65 ZM 149.70 178.82 C149.64,178.69 149.58,178.57 149.52,178.44 C151.07,181.30 152.71,183.75 154.32,185.50 C155.34,186.60 156.59,188.29 157.12,189.25 C158.69,192.13 156.61,191.31 150.26,186.54 C144.04,181.86 138.62,176.65 134.25,171.25 C135.30,172.49 136.41,173.73 137.60,174.98 C144.36,182.05 151.70,187.59 152.85,186.47 C153.04,186.28 151.63,182.84 149.70,178.82 ZM 475.00 379.00 C475.00,382.41 475.31,383.09 476.75,382.81 C478.02,382.57 478.50,381.51 478.50,379.00 C478.50,376.49 478.02,375.43 476.75,375.19 C475.31,374.91 475.00,375.59 475.00,379.00 ZM 190.71 228.38 C190.82,228.49 190.12,228.64 189.14,228.71 C187.54,228.84 180.00,222.91 180.00,221.53 C180.00,221.11 189.42,227.13 190.71,228.38 ZM 269.04 59.88 C283.57,59.84 297.86,61.22 311.00,64.09 C318.23,65.66 325.26,67.69 332.07,70.17 C313.29,63.38 291.42,59.91 269.04,59.88 ZM 122.91 149.35 C122.73,148.48 122.59,147.62 122.48,146.77 C120.73,132.58 128.85,117.15 144.00,103.23 C138.47,108.35 133.82,113.75 130.18,119.33 C123.48,129.58 121.05,139.52 122.91,149.35 ZM 145.98 170.78 C143.59,165.28 142.89,162.36 142.04,156.74 C142.70,161.15 144.14,166.12 145.98,170.78 ZM 318.73 74.23 C307.21,72.04 295.00,71.00 281.67,71.00 C295.41,71.00 307.24,71.98 318.73,74.23 Z" fill="rgb(102,163,165)"/>
<path d="M 326.30 221.57 C313.70,224.14 305.89,224.53 302.25,222.78 C298.17,220.81 299.86,219.23 309.39,216.09 C314.56,214.38 320.29,212.34 322.14,211.55 C327.96,209.07 334.14,201.87 329.25,203.27 C328.29,203.55 323.45,204.99 318.50,206.48 C297.17,212.90 293.82,213.31 286.50,210.45 C283.92,209.44 264.00,191.13 264.00,189.77 C264.00,189.11 266.65,188.91 271.30,189.21 C277.41,189.60 279.91,190.35 286.54,193.83 L 294.48 197.99 L 306.99 194.41 C318.43,191.14 319.86,190.46 323.75,186.47 C327.84,182.28 329.36,179.18 326.75,180.35 C319.10,183.77 307.67,187.91 304.37,188.46 C301.65,188.90 295.00,188.25 284.87,186.54 C276.42,185.11 263.20,183.61 255.50,183.22 C241.89,182.52 241.49,182.44 241.17,180.19 C240.01,172.00 258.72,167.85 287.42,169.93 L 302.83 171.05 L 312.66 165.12 C318.07,161.86 324.79,157.91 327.58,156.35 C349.76,143.92 351.96,142.48 351.98,140.31 C352.01,137.40 343.54,126.45 338.50,122.86 C332.91,118.89 323.89,115.94 315.57,115.37 C302.40,114.46 293.25,110.17 294.17,105.34 C294.47,103.77 296.27,103.31 306.51,102.17 C318.16,100.88 318.95,100.92 334.00,103.56 C348.91,106.18 349.93,106.52 360.81,112.39 C388.76,127.48 404.11,144.82 412.48,170.73 C415.69,180.68 415.57,184.37 412.00,184.81 C402.06,186.02 368.83,199.82 355.10,208.43 C353.12,209.67 348.49,212.59 344.80,214.92 C339.19,218.48 336.21,219.55 326.30,221.57 ZM 190.71 228.38 C190.39,228.07 189.57,227.47 188.53,226.75 C204.25,236.88 224.08,244.83 244.50,249.16 C256.49,251.70 261.44,252.20 279.00,252.67 C307.27,253.42 323.70,251.20 348.50,243.29 C376.70,234.29 400.83,219.31 412.84,203.36 C420.10,193.71 422.23,187.72 422.77,175.33 C423.17,166.27 422.93,164.32 420.56,157.33 C419.10,153.03 416.82,147.70 415.48,145.50 C408.69,134.31 409.01,133.39 417.36,140.18 C430.68,151.01 437.41,159.78 440.97,170.90 C444.59,182.25 442.97,194.74 436.53,205.00 C432.01,212.21 416.26,227.25 406.77,233.42 C384.69,247.78 352.58,259.23 323.92,262.95 C315.18,264.08 291.38,264.99 285.50,264.41 C256.72,261.58 241.54,257.99 221.87,249.37 C209.07,243.76 198.31,237.30 188.00,229.03 C186.52,227.85 185.26,226.79 184.23,225.89 C186.24,227.44 188.37,228.77 189.14,228.71 C190.12,228.64 190.82,228.49 190.71,228.38 ZM 124.34 348.75 L 122.80 356.00 L 116.88 356.00 L 116.65 356.00 C114.12,356.00 112.55,356.00 111.44,355.28 C109.56,354.07 109.02,350.80 107.48,342.00 C106.56,336.77 105.18,329.26 104.41,325.29 C103.63,321.33 103.00,317.62 103.00,317.04 C103.00,316.45 105.32,316.00 108.38,316.00 L 113.77 316.00 L 114.44 322.75 C115.49,333.38 117.18,341.22 118.19,340.21 C118.69,339.71 120.00,334.85 121.09,329.40 C123.00,319.93 123.44,317.13 124.95,316.32 C125.58,315.98 126.41,315.98 127.60,316.00 C127.84,316.00 128.09,316.00 128.35,316.00 L 132.57 316.00 L 135.28 327.40 C136.78,333.66 138.00,339.51 138.00,340.40 C138.00,341.28 138.43,342.00 138.95,342.00 C139.99,342.00 140.34,340.31 142.24,326.00 L 143.50 316.50 L 148.39 316.19 L 153.27 315.88 L 152.73 320.19 C151.85,327.05 148.06,348.08 146.94,352.22 C145.92,355.99 145.91,356.00 140.58,356.00 C134.42,356.00 133.36,355.12 132.11,348.89 C128.99,333.46 127.88,331.34 126.52,338.26 C126.17,340.04 125.19,344.76 124.34,348.75 ZM 438.50 332.50 L 437.94 356.00 L 429.00 356.00 L 429.00 316.00 L 439.50 316.03 L 451.50 340.50 L 451.78 328.20 L 452.06 315.89 L 456.78 316.20 L 461.50 316.50 L 461.82 327.00 C461.99,332.77 461.84,341.66 461.48,346.75 L 460.81 356.00 L 451.17 356.00 ZM 233.54 353.25 C233.03,355.70 232.52,356.00 228.95,356.00 C226.17,356.00 224.75,355.50 224.31,354.37 C223.97,353.48 225.17,347.97 226.98,342.12 C228.80,336.28 230.93,329.25 231.72,326.50 C233.53,320.16 234.18,317.65 235.78,316.65 C236.84,315.99 238.30,316.00 240.78,316.00 C240.97,316.00 241.17,316.00 241.37,316.00 L 247.50 316.00 L 249.12 321.25 C250.01,324.14 252.60,332.44 254.87,339.70 C257.14,346.96 259.00,353.60 259.00,354.45 C259.00,355.58 257.95,356.00 255.12,356.00 C250.91,356.00 249.28,354.68 248.11,350.31 C247.39,347.64 247.07,347.50 241.54,347.50 C235.35,347.50 234.64,348.01 233.54,353.25 ZM 345.10 351.50 C344.00,355.90 343.88,356.00 339.95,356.00 C337.66,356.00 335.73,355.46 335.46,354.75 C335.20,354.06 335.60,351.25 336.36,348.50 C339.01,338.93 342.86,326.47 344.70,321.50 L 346.55 316.50 L 352.73 316.20 L 358.90 315.91 L 360.02 320.20 C360.64,322.57 361.98,326.98 363.00,330.00 C366.91,341.57 370.00,352.20 370.00,354.06 C370.00,355.65 369.29,356.00 366.06,356.00 C361.71,356.00 359.00,353.42 359.00,349.28 C359.00,347.15 358.59,347.00 352.62,347.00 L 346.24 347.00 ZM 202.81 351.78 L 202.50 355.50 L 176.00 356.06 L 176.00 316.00 L 202.00 316.00 L 202.00 323.92 L 194.25 324.21 L 186.50 324.50 L 186.50 327.50 C186.50,330.47 186.56,330.50 193.00,331.00 L 199.50 331.50 L 199.50 339.50 L 193.00 340.00 C186.56,340.50 186.50,340.53 186.50,343.50 C186.50,346.47 186.56,346.50 192.50,346.76 C202.52,347.19 203.16,347.50 202.81,351.78 ZM 309.50 353.94 C304.46,356.39 295.18,356.35 290.16,353.85 C281.12,349.36 277.30,336.89 281.83,326.66 C284.85,319.82 291.28,316.00 299.75,316.00 C306.34,316.00 312.00,318.01 312.00,320.35 C312.00,321.07 310.92,322.67 309.59,323.91 C307.64,325.75 306.81,325.97 305.16,325.09 C304.04,324.49 301.61,324.00 299.75,324.00 C289.24,324.00 286.58,343.23 296.57,347.02 C301.20,348.79 303.90,348.25 304.61,345.43 C305.32,342.58 304.51,341.38 301.50,340.83 C299.95,340.55 299.50,339.69 299.50,336.99 L 299.50 333.50 L 306.13 333.21 L 312.76 332.91 L 313.35 337.21 C313.68,339.57 313.62,343.97 313.22,346.99 C312.59,351.77 312.11,352.66 309.50,353.94 ZM 402.77 335.75 L 402.50 355.50 L 397.25 355.80 L 392.00 356.10 L 392.00 316.00 L 403.04 316.00 ZM 349.34 338.45 C350.50,341.46 356.00,339.91 356.00,336.57 C356.00,333.68 353.03,325.00 352.04,325.00 C350.95,325.00 348.63,336.58 349.34,338.45 ZM 237.56 339.09 C237.91,339.67 238.87,339.88 239.68,339.57 C240.50,339.26 241.80,339.00 242.58,339.00 C244.29,339.00 244.46,334.21 242.95,328.75 C241.72,324.32 240.28,323.92 239.42,327.75 C239.08,329.26 238.37,332.20 237.85,334.27 C237.34,336.35 237.20,338.52 237.56,339.09 ZM 185.39 224.66 C184.23,223.92 183.08,223.20 182.13,222.63 C182.89,223.04 183.97,223.71 185.39,224.66 Z" fill="rgb(224,110,18)"/>
<path d="M 0.00 220.00 L 0.00 0.00 L 283.00 0.00 L 566.00 0.00 L 566.00 220.00 L 566.00 440.00 L 283.00 440.00 L 0.00 440.00 L 0.00 220.00 ZM 324.46 389.06 C324.78,388.55 324.31,387.71 323.42,387.21 C321.93,386.38 321.93,386.04 323.35,383.29 C324.57,380.94 324.69,379.47 323.92,376.67 C322.83,372.71 322.17,372.08 318.46,371.41 C315.22,370.82 311.00,374.88 311.00,378.59 C311.00,383.81 322.28,392.59 324.46,389.06 ZM 63.00 379.99 C63.00,376.39 63.46,374.83 64.75,374.07 C66.28,373.17 66.31,372.90 65.00,371.98 C63.52,370.94 57.34,371.33 56.13,372.53 C55.79,372.87 56.30,373.59 57.26,374.12 C58.49,374.81 59.00,376.35 59.00,379.35 C59.00,383.53 60.51,386.42 62.16,385.40 C62.62,385.12 63.00,382.68 63.00,379.99 ZM 89.28 384.50 C89.16,383.95 87.92,383.36 86.53,383.18 C83.40,382.79 83.18,380.26 86.25,379.82 C87.49,379.64 88.50,379.05 88.50,378.50 C88.50,377.95 87.49,377.36 86.25,377.18 C83.26,376.76 83.39,375.37 86.50,374.59 C90.57,373.57 89.36,372.00 84.50,372.00 L 80.00 372.00 L 80.00 379.05 L 80.00 386.11 L 84.75 385.80 C87.36,385.64 89.40,385.05 89.28,384.50 ZM 112.42 385.39 C115.02,384.39 114.22,383.15 110.75,382.81 C108.02,382.55 107.45,382.05 107.18,379.69 C106.80,376.42 108.69,373.67 110.75,374.46 C112.94,375.30 114.28,374.04 112.93,372.41 C111.17,370.29 108.20,370.71 105.45,373.45 C99.78,379.13 105.07,388.21 112.42,385.39 ZM 131.00 383.11 C131.00,379.97 132.28,379.93 134.15,383.00 C137.37,388.30 139.00,386.95 139.00,379.00 C139.00,373.58 138.68,372.00 137.56,372.00 C136.67,372.00 136.01,373.24 135.81,375.25 L 135.50 378.50 L 133.72 375.25 C132.65,373.28 131.17,372.00 129.97,372.00 C128.22,372.00 128.00,372.69 128.00,378.33 C128.00,381.82 128.29,384.95 128.64,385.31 C129.65,386.31 131.00,385.06 131.00,383.11 ZM 164.44 383.78 C166.91,380.25 166.43,375.49 163.37,373.07 C159.95,370.39 158.45,370.46 155.45,373.45 C152.42,376.48 152.22,381.22 155.00,384.00 C157.72,386.72 162.46,386.61 164.44,383.78 ZM 188.75 384.75 C188.52,384.06 187.47,383.34 186.42,383.13 C183.75,382.63 183.03,381.17 183.02,376.25 C183.00,373.15 182.60,372.00 181.50,372.00 C180.31,372.00 180.00,373.44 180.00,379.00 L 180.00 386.00 L 184.58 386.00 C187.81,386.00 189.04,385.63 188.75,384.75 ZM 212.93 383.37 C215.44,380.17 215.54,377.24 213.23,374.31 C209.30,369.33 202.66,371.13 201.42,377.52 C200.07,384.55 208.59,388.88 212.93,383.37 ZM 238.42 385.39 C239.43,385.00 240.00,383.56 240.00,381.39 C240.00,378.51 239.65,378.00 237.67,378.00 C234.64,378.00 233.73,378.97 235.15,380.68 C236.54,382.35 235.64,383.46 233.54,382.65 C231.57,381.90 231.51,376.65 233.45,375.04 C234.25,374.38 235.83,374.13 236.95,374.48 C239.44,375.27 239.88,372.55 237.42,371.61 C234.59,370.52 232.95,370.96 230.45,373.45 C224.41,379.50 230.40,388.47 238.42,385.39 ZM 257.57 377.86 C257.60,373.76 257.95,369.89 258.33,369.27 C259.28,367.75 257.10,366.50 255.78,367.82 C254.56,369.04 253.45,382.13 254.37,384.52 C254.72,385.43 255.56,385.98 256.25,385.74 C257.09,385.46 257.52,382.88 257.57,377.86 ZM 273.64 384.50 C274.42,382.46 277.99,382.61 279.57,384.75 C282.11,388.18 282.74,384.69 280.75,378.25 C279.13,372.98 278.47,372.00 276.55,372.00 C274.64,372.00 273.96,373.00 272.28,378.25 C271.17,381.69 270.46,384.84 270.70,385.25 C271.40,386.50 273.03,386.09 273.64,384.50 ZM 348.17 384.35 C349.50,383.14 350.00,381.26 350.00,377.40 C350.00,374.50 349.55,371.84 349.00,371.50 C347.68,370.69 346.00,375.22 346.00,379.57 C346.00,382.30 345.60,383.00 344.05,383.00 C342.38,383.00 342.06,382.18 341.80,377.25 C341.58,372.94 341.12,371.50 340.00,371.50 C337.79,371.50 337.40,380.43 339.46,383.59 C341.34,386.44 345.46,386.80 348.17,384.35 ZM 373.00 384.50 C373.00,383.57 372.06,383.00 370.50,383.00 C367.35,383.00 367.13,380.26 370.25,379.82 C371.49,379.64 372.50,379.05 372.50,378.50 C372.50,377.95 371.49,377.36 370.25,377.18 C368.02,376.86 367.07,375.12 369.00,374.88 C369.55,374.81 370.52,374.69 371.17,374.62 C371.81,374.56 372.52,373.94 372.75,373.25 C373.04,372.37 371.81,372.00 368.58,372.00 L 364.00 372.00 L 364.00 379.00 L 364.00 386.00 L 368.50 386.00 C371.83,386.00 373.00,385.61 373.00,384.50 ZM 412.73 384.32 C412.95,383.65 411.92,383.01 410.31,382.82 C408.07,382.57 407.43,381.93 407.18,379.69 C406.78,376.20 408.66,373.76 411.14,374.54 C412.39,374.94 413.00,374.64 413.00,373.63 C413.00,371.09 409.04,370.58 406.13,372.74 C402.79,375.23 402.00,381.24 404.63,384.15 C406.56,386.28 412.05,386.40 412.73,384.32 ZM 437.17 384.35 C438.49,383.15 439.00,381.26 439.00,377.51 C439.00,371.88 438.54,370.85 436.40,371.68 C435.44,372.05 435.00,373.91 435.00,377.68 C435.00,382.35 434.74,383.10 433.25,382.81 C431.90,382.56 431.43,381.29 431.20,377.24 C430.94,372.82 430.59,372.00 428.95,372.00 C427.29,372.00 427.00,372.71 427.00,376.78 C427.00,379.48 427.68,382.52 428.56,383.78 C430.42,386.43 434.56,386.71 437.17,384.35 ZM 456.39 384.42 C457.52,381.48 457.03,373.27 455.66,372.13 C454.92,371.52 454.02,371.31 453.66,371.68 C452.80,372.54 452.80,384.47 453.67,385.33 C454.76,386.43 455.75,386.10 456.39,384.42 ZM 479.32 384.85 C482.20,383.33 482.97,382.06 482.98,378.75 C483.01,374.72 479.79,372.00 475.00,372.00 L 471.00 372.00 L 471.00 378.33 C471.00,381.82 471.30,384.97 471.67,385.33 C472.71,386.38 476.91,386.11 479.32,384.85 ZM 498.36 384.50 C498.68,383.67 499.87,383.00 501.00,383.00 C502.13,383.00 503.32,383.67 503.64,384.50 C504.32,386.27 507.00,386.53 507.00,384.82 C507.00,381.88 503.64,372.08 502.48,371.63 C501.77,371.36 500.52,371.67 499.70,372.32 C498.06,373.61 494.80,383.87 495.61,385.18 C496.41,386.47 497.73,386.14 498.36,384.50 ZM 124.34 348.75 C125.19,344.76 126.17,340.04 126.52,338.26 C127.88,331.34 128.99,333.46 132.11,348.89 C133.36,355.12 134.42,356.00 140.58,356.00 C145.91,356.00 145.92,355.99 146.94,352.22 C148.06,348.08 151.85,327.05 152.73,320.19 L 153.27 315.88 L 148.39 316.19 L 143.50 316.50 L 142.24 326.00 C140.34,340.31 139.99,342.00 138.95,342.00 C138.43,342.00 138.00,341.28 138.00,340.40 C138.00,339.51 136.78,333.66 135.28,327.40 L 132.57 316.00 L 128.35 316.00 C123.51,316.00 123.95,315.18 121.09,329.40 C120.00,334.85 118.69,339.71 118.19,340.21 C117.18,341.22 115.49,333.38 114.44,322.75 L 113.77 316.00 L 108.38 316.00 C105.32,316.00 103.00,316.45 103.00,317.04 C103.00,317.62 103.63,321.33 104.41,325.29 C105.18,329.26 106.56,336.77 107.48,342.00 C109.96,356.16 109.85,356.00 116.88,356.00 L 122.80 356.00 L 124.34 348.75 ZM 202.81 351.78 C203.16,347.50 202.52,347.19 192.50,346.76 C186.56,346.50 186.50,346.47 186.50,343.50 C186.50,340.53 186.56,340.50 193.00,340.00 L 199.50 339.50 L 199.50 335.50 L 199.50 331.50 L 193.00 331.00 C186.56,330.50 186.50,330.47 186.50,327.50 L 186.50 324.50 L 194.25 324.21 L 202.00 323.92 L 202.00 319.96 L 202.00 316.00 L 189.00 316.00 L 176.00 316.00 L 176.00 336.03 L 176.00 356.06 L 189.25 355.78 L 202.50 355.50 L 202.81 351.78 ZM 233.54 353.25 C234.64,348.01 235.35,347.50 241.54,347.50 C247.07,347.50 247.39,347.64 248.11,350.31 C249.28,354.68 250.91,356.00 255.12,356.00 C257.95,356.00 259.00,355.58 259.00,354.45 C259.00,353.60 257.14,346.96 254.87,339.70 C252.60,332.44 250.01,324.14 249.12,321.25 L 247.50 316.00 L 241.37 316.00 C234.52,316.00 234.82,315.67 231.72,326.50 C230.93,329.25 228.80,336.28 226.98,342.12 C225.17,347.97 223.97,353.48 224.31,354.37 C224.75,355.50 226.17,356.00 228.95,356.00 C232.52,356.00 233.03,355.70 233.54,353.25 ZM 309.50 353.94 C312.11,352.66 312.59,351.77 313.22,346.99 C313.62,343.97 313.68,339.57 313.35,337.21 L 312.76 332.91 L 306.13 333.21 L 299.50 333.50 L 299.50 336.99 C299.50,339.69 299.95,340.55 301.50,340.83 C304.51,341.38 305.32,342.58 304.61,345.43 C303.90,348.25 301.20,348.79 296.57,347.02 C286.58,343.23 289.24,324.00 299.75,324.00 C301.61,324.00 304.04,324.49 305.16,325.09 C306.81,325.97 307.64,325.75 309.59,323.91 C310.92,322.67 312.00,321.07 312.00,320.35 C312.00,318.01 306.34,316.00 299.75,316.00 C291.28,316.00 284.85,319.82 281.83,326.66 C277.30,336.89 281.12,349.36 290.16,353.85 C295.18,356.35 304.46,356.39 309.50,353.94 ZM 345.10 351.50 L 346.24 347.00 L 352.62 347.00 C358.59,347.00 359.00,347.15 359.00,349.28 C359.00,353.42 361.71,356.00 366.06,356.00 C369.29,356.00 370.00,355.65 370.00,354.06 C370.00,352.20 366.91,341.57 363.00,330.00 C361.98,326.98 360.64,322.57 360.02,320.20 L 358.90 315.91 L 352.73 316.20 L 346.55 316.50 L 344.70 321.50 C342.86,326.47 339.01,338.93 336.36,348.50 C335.60,351.25 335.20,354.06 335.46,354.75 C335.73,355.46 337.66,356.00 339.95,356.00 C343.88,356.00 344.00,355.90 345.10,351.50 ZM 402.77 335.75 L 403.04 316.00 L 397.52 316.00 L 392.00 316.00 L 392.00 336.05 L 392.00 356.10 L 397.25 355.80 L 402.50 355.50 L 402.77 335.75 ZM 438.22 344.25 L 438.50 332.50 L 444.83 344.25 L 451.17 356.00 L 455.99 356.00 L 460.81 356.00 L 461.48 346.75 C461.84,341.66 461.99,332.77 461.82,327.00 L 461.50 316.50 L 456.78 316.20 L 452.06 315.89 L 451.78 328.20 L 451.50 340.50 L 445.50 328.26 L 439.50 316.03 L 434.25 316.01 L 429.00 316.00 L 429.00 336.00 L 429.00 356.00 L 433.47 356.00 L 437.94 356.00 L 438.22 344.25 ZM 323.92 262.95 C352.58,259.23 384.69,247.78 406.77,233.42 C416.26,227.25 432.01,212.21 436.53,205.00 C442.97,194.74 444.59,182.25 440.97,170.90 C437.41,159.78 430.68,151.01 417.36,140.18 C409.01,133.39 408.69,134.31 415.48,145.50 C416.82,147.70 419.10,153.03 420.56,157.33 C422.93,164.32 423.17,166.27 422.77,175.33 C422.23,187.72 420.10,193.71 412.84,203.36 C400.83,219.31 376.70,234.29 348.50,243.29 C323.70,251.20 307.27,253.42 279.00,252.67 C261.44,252.20 256.49,251.70 244.50,249.16 C222.85,244.57 201.86,235.91 185.73,224.89 C178.17,219.73 179.55,222.26 188.00,229.03 C198.31,237.30 209.07,243.76 221.87,249.37 C241.54,257.99 256.72,261.58 285.50,264.41 C291.38,264.99 315.18,264.08 323.92,262.95 ZM 326.30 221.57 C336.21,219.55 339.19,218.48 344.80,214.92 C348.49,212.59 353.12,209.67 355.10,208.43 C368.83,199.82 402.06,186.02 412.00,184.81 C415.57,184.37 415.69,180.68 412.48,170.73 C404.11,144.82 388.76,127.48 360.81,112.39 C349.93,106.52 348.91,106.18 334.00,103.56 C318.95,100.92 318.16,100.88 306.51,102.17 C296.27,103.31 294.47,103.77 294.17,105.34 C293.25,110.17 302.40,114.46 315.57,115.37 C323.89,115.94 332.91,118.89 338.50,122.86 C343.54,126.45 352.01,137.40 351.98,140.31 C351.96,142.48 349.76,143.92 327.58,156.35 C324.79,157.91 318.07,161.86 312.66,165.12 L 302.83 171.05 L 287.42 169.93 C258.72,167.85 240.01,172.00 241.17,180.19 C241.49,182.44 241.89,182.52 255.50,183.22 C263.20,183.61 276.42,185.11 284.87,186.54 C295.00,188.25 301.65,188.90 304.37,188.46 C307.67,187.91 319.10,183.77 326.75,180.35 C329.36,179.18 327.84,182.28 323.75,186.47 C319.86,190.46 318.43,191.14 306.99,194.41 L 294.48 197.99 L 286.54 193.83 C279.91,190.35 277.41,189.60 271.30,189.21 C266.65,188.91 264.00,189.11 264.00,189.77 C264.00,191.13 283.92,209.44 286.50,210.45 C293.82,213.31 297.17,212.90 318.50,206.48 C323.45,204.99 328.29,203.55 329.25,203.27 C334.14,201.87 327.96,209.07 322.14,211.55 C320.29,212.34 314.56,214.38 309.39,216.09 C299.86,219.23 298.17,220.81 302.25,222.78 C305.89,224.53 313.70,224.14 326.30,221.57 ZM 264.99 221.20 C271.37,220.39 272.58,218.31 268.94,214.44 C266.07,211.38 262.58,210.32 251.50,209.12 C233.57,207.20 221.41,199.66 214.61,186.27 L 212.97 183.05 L 216.74 180.67 C224.67,175.67 246.88,162.49 255.36,157.76 C263.03,153.47 264.71,152.90 267.86,153.47 C269.86,153.84 278.78,154.37 287.68,154.66 C301.96,155.11 304.84,154.92 312.18,153.05 C320.95,150.82 324.00,148.60 324.00,144.49 C324.00,142.27 323.64,142.18 312.25,141.54 C299.15,140.81 292.81,140.03 275.99,137.11 C262.78,134.81 260.53,135.08 247.34,140.54 C242.74,142.44 238.76,144.00 238.49,144.00 C237.04,144.00 238.40,140.87 241.31,137.50 C244.04,134.34 245.85,133.35 251.56,131.90 C255.38,130.92 261.53,129.34 265.24,128.38 L 271.97 126.62 L 279.15 130.44 C286.98,134.61 297.94,136.53 299.50,134.01 C300.50,132.39 284.03,116.74 278.43,114.00 C271.73,110.70 270.94,110.83 240.13,120.17 C236.63,121.23 233.52,121.85 233.21,121.55 C232.52,120.86 236.80,116.20 239.50,114.71 C240.60,114.10 246.87,111.75 253.43,109.50 C260.00,107.24 265.55,104.85 265.77,104.19 C265.99,103.52 264.47,102.26 262.39,101.39 C259.13,100.03 257.32,99.96 249.51,100.95 C234.40,102.85 227.37,105.13 218.00,111.18 C197.37,124.51 170.04,136.76 152.63,140.48 C149.83,141.08 149.77,141.22 150.40,145.96 C152.33,160.53 161.62,177.57 174.99,191.09 C183.86,200.05 190.61,204.74 205.50,212.31 C215.12,217.20 217.99,218.16 228.38,219.92 C234.92,221.02 240.54,222.22 240.88,222.58 C241.51,223.24 255.01,222.47 264.99,221.20 ZM 157.12 189.25 C156.59,188.29 155.34,186.60 154.32,185.50 C149.12,179.85 143.57,166.84 142.04,156.74 C139.58,140.54 144.26,128.73 158.98,113.94 C169.42,103.45 174.43,99.86 190.07,91.67 C216.04,78.07 247.38,71.00 281.67,71.00 C319.67,71.00 348.63,79.42 378.25,99.09 C386.09,104.29 385.50,102.29 377.25,95.68 C357.67,79.99 335.51,69.43 311.00,64.09 C277.01,56.68 235.29,59.17 201.85,70.60 C152.38,87.51 119.11,119.44 122.48,146.77 C124.08,159.68 134.63,174.78 150.26,186.54 C156.61,191.31 158.69,192.13 157.12,189.25 ZM 315.37 380.35 C314.69,377.64 315.76,374.91 317.75,374.25 C319.42,373.69 321.26,377.84 320.57,380.59 C319.72,383.98 316.24,383.81 315.37,380.35 ZM 157.42 381.65 C156.27,378.65 157.43,375.51 159.82,375.17 C161.93,374.87 162.10,375.17 161.82,378.66 C161.48,382.67 158.57,384.65 157.42,381.65 ZM 205.61 381.42 C204.62,378.86 204.90,377.25 206.61,375.54 C207.85,374.30 208.53,374.19 209.61,375.09 C212.17,377.22 211.00,383.00 208.00,383.00 C207.02,383.00 205.94,382.29 205.61,381.42 ZM 475.00 379.00 C475.00,375.59 475.31,374.91 476.75,375.19 C478.02,375.43 478.50,376.49 478.50,379.00 C478.50,381.51 478.02,382.57 476.75,382.81 C475.31,383.09 475.00,382.41 475.00,379.00 ZM 237.56 339.09 C237.20,338.52 237.34,336.35 237.85,334.27 C238.37,332.20 239.08,329.26 239.42,327.75 C240.28,323.92 241.72,324.32 242.95,328.75 C244.46,334.21 244.29,339.00 242.58,339.00 C241.80,339.00 240.50,339.26 239.68,339.57 C238.87,339.88 237.91,339.67 237.56,339.09 ZM 349.34 338.45 C348.63,336.58 350.95,325.00 352.04,325.00 C353.03,325.00 356.00,333.68 356.00,336.57 C356.00,339.91 350.50,341.46 349.34,338.45 Z" fill="rgb(253,254,253)"/>
</g>
</svg>